<?xml version="1.0" encoding="utf-8"?>
<!-- Generator: Adobe Illustrator 19.1.1, SVG Export Plug-In . SVG Version: 6.00 Build 0)  -->
<svg version="1.1" id="Layer_1" xmlns="http://www.w3.org/2000/svg" xmlns:xlink="http://www.w3.org/1999/xlink" x="0px" y="0px"
	 viewBox="0 0 1200 1200" enable-background="new 0 0 1200 1200" xml:space="preserve">
<g>
	<g>
		<path fill="#D6BF9F" d="M1010.471,67.39H599.999H189.527c-33.899,0-64.589,13.74-86.804,35.955s-35.955,52.905-35.955,86.804
			v341.877v341.877h533.232h533.232V532.027V190.15c0-33.899-13.74-64.589-35.955-86.804
			C1075.06,81.131,1044.37,67.39,1010.471,67.39z"/>
		<path fill="#2E4C59" d="M1133.232,890.671H600H66.768c-4.631,0-8.823-1.877-11.857-4.911C51.877,882.726,50,878.534,50,873.903
			V513.24V152.578c0-28.11,11.434-53.6,29.895-72.062s43.949-29.897,72.057-29.897H600h448.047
			c28.108,0,53.596,11.435,72.057,29.897S1150,124.468,1150,152.578V513.24v360.662c0,4.631-1.877,8.823-4.911,11.857
			C1142.055,888.795,1137.863,890.671,1133.232,890.671z M83.537,857.135H600h516.463V504.856V152.578
			c0-18.864-7.673-35.97-20.061-48.359s-29.492-20.063-48.355-20.063H600H151.953c-18.863,0-35.967,7.673-48.355,20.063
			s-20.061,29.495-20.061,48.359v352.278V857.135z"/>
	</g>
	<g>
		<path fill="#D6BF9F" d="M1010.471,67.39H599.999H189.527c-33.899,0-64.589,13.74-86.804,35.955s-35.955,52.905-35.955,86.804
			v341.877v341.877h533.232h533.232V532.027V190.15c0-33.899-13.74-64.589-35.955-86.804
			C1075.06,81.131,1044.37,67.39,1010.471,67.39z"/>
		<path fill="#2E4C59" d="M1133.232,890.671H600H66.768c-4.631,0-8.823-1.877-11.857-4.911C51.877,882.726,50,878.534,50,873.903
			V513.24V152.578c0-28.11,11.434-53.6,29.895-72.062s43.949-29.897,72.057-29.897H600h448.047
			c28.108,0,53.596,11.435,72.057,29.897S1150,124.468,1150,152.578V513.24v360.662c0,4.631-1.877,8.823-4.911,11.857
			C1142.055,888.795,1137.863,890.671,1133.232,890.671z M83.537,857.135H600h516.463V504.856V152.578
			c0-18.864-7.673-35.97-20.061-48.359s-29.492-20.063-48.355-20.063H600H151.953c-18.863,0-35.967,7.673-48.355,20.063
			s-20.061,29.495-20.061,48.359v352.278V857.135z"/>
	</g>
	<g opacity="0.35">
		<path fill="#2E4C59" d="M1010.471,408.687H599.999H189.527c-33.899,0-64.589,13.74-86.804,35.955s-35.955,52.905-35.955,86.804
			v171.229v171.229h533.232h533.232V702.675V531.446c0-33.899-13.74-64.589-35.955-86.804
			C1075.06,422.427,1044.37,408.687,1010.471,408.687z"/>
		<path fill="#2E4C59" d="M1133.232,890.671H600H66.768c-4.631,0-8.823-1.877-11.857-4.911C51.877,882.726,50,878.534,50,873.903
			V683.887V493.872c0-28.11,11.434-53.598,29.895-72.059c18.461-18.461,43.949-29.894,72.057-29.894H600h448.047
			c28.108,0,53.596,11.433,72.057,29.894c18.461,18.461,29.895,43.949,29.895,72.059v190.016v190.016
			c0,4.631-1.877,8.823-4.911,11.857C1142.055,888.795,1137.863,890.671,1133.232,890.671z M83.537,857.135H600h516.463V675.503
			V493.872c0-18.861-7.673-35.965-20.061-48.354s-29.492-20.062-48.355-20.062H600H151.953c-18.863,0-35.967,7.673-48.355,20.062
			s-20.061,29.493-20.061,48.354v181.631V857.135z"/>
	</g>
	<g>
		<path fill="#FFFFFF" d="M957.504,696.312H599.999H242.494c-13.379,0-25.492-5.423-34.26-14.191s-14.191-20.88-14.191-34.26V448.52
			V249.178c0-13.379,5.423-25.492,14.191-34.26s20.88-14.191,34.26-14.191h357.505h357.505c13.379,0,25.492,5.423,34.26,14.191
			s14.191,20.88,14.191,34.26V448.52v199.342c0,13.379-5.423,25.492-14.191,34.26S970.883,696.312,957.504,696.312z"/>
		<path fill="#2E4C59" d="M972.335,713.078H600H227.665c-13.893,0-26.49-5.651-35.615-14.775s-14.775-21.719-14.775-35.609V448.522
			V234.35c0-13.893,5.651-26.49,14.775-35.615c9.124-9.124,21.722-14.775,35.615-14.775H600h372.335
			c13.893,0,26.49,5.651,35.615,14.775c9.124,9.124,14.775,21.722,14.775,35.615v214.172v214.172
			c0,13.89-5.651,26.485-14.775,35.609C998.825,707.427,986.227,713.078,972.335,713.078z M227.665,217.496
			c-4.647,0-8.861,1.89-11.912,4.941c-3.052,3.052-4.941,7.265-4.941,11.912v214.172v214.172c0,4.644,1.89,8.856,4.941,11.906
			s7.265,4.94,11.912,4.94H600h372.335c4.647,0,8.861-1.89,11.912-4.94c3.052-3.051,4.941-7.262,4.941-11.906V448.522V234.35
			c0-4.647-1.89-8.861-4.941-11.912c-3.052-3.052-7.265-4.941-11.912-4.941H600H227.665z"/>
	</g>
	<g>
		<path fill="#FFFFFF" d="M957.504,778.925H599.999H242.494c-13.379,0-25.492-5.423-34.26-14.191s-14.191-20.88-14.191-34.26
			V531.133V331.791c0-13.379,5.423-25.492,14.191-34.26s20.88-14.191,34.26-14.191h357.505h357.505
			c13.379,0,25.492,5.423,34.26,14.191s14.191,20.88,14.191,34.26v199.342v199.342c0,13.379-5.423,25.492-14.191,34.26
			S970.883,778.925,957.504,778.925z"/>
		<path fill="#2E4C59" d="M972.335,795.695H600H227.665c-13.893,0-26.49-5.651-35.615-14.775s-14.775-21.722-14.775-35.615V531.132
			V316.96c0-13.893,5.651-26.49,14.775-35.615s21.722-14.775,35.615-14.775H600h372.335c13.893,0,26.49,5.651,35.615,14.775
			c9.124,9.124,14.775,21.722,14.775,35.615v214.172v214.172c0,13.893-5.651,26.49-14.775,35.615
			C998.825,790.043,986.227,795.695,972.335,795.695z M227.665,300.106c-4.647,0-8.861,1.89-11.912,4.941
			c-3.052,3.052-4.941,7.265-4.941,11.912v214.172v214.172c0,4.647,1.89,8.861,4.941,11.912c3.052,3.052,7.265,4.941,11.912,4.941
			H600h372.335c4.647,0,8.861-1.89,11.912-4.941c3.052-3.052,4.941-7.265,4.941-11.912V531.132V316.96
			c0-4.647-1.89-8.861-4.941-11.912c-3.052-3.052-7.265-4.941-11.912-4.941H600H227.665z"/>
	</g>
	<g>
		<path fill="#FFFFFF" d="M957.504,861.538H599.999H242.494c-13.379,0-25.492-5.423-34.26-14.191s-14.191-20.88-14.191-34.26
			V613.746V414.405c0-13.379,5.423-25.492,14.191-34.26c8.768-8.768,20.88-14.191,34.26-14.191h357.505h357.505
			c13.379,0,25.492,5.423,34.26,14.191c8.768,8.768,14.191,20.88,14.191,34.26v199.342v199.342c0,13.379-5.423,25.492-14.191,34.26
			S970.883,861.538,957.504,861.538z"/>
		<path fill="#2E4C59" d="M972.335,878.305H600H227.665c-13.893,0-26.49-5.651-35.615-14.775s-14.775-21.722-14.775-35.615V613.745
			V399.576c0-13.893,5.651-26.49,14.775-35.615c9.124-9.124,21.722-14.775,35.615-14.775H600h372.335
			c13.893,0,26.49,5.651,35.615,14.775c9.124,9.124,14.775,21.722,14.775,35.615v214.169v214.169
			c0,13.893-5.651,26.49-14.775,35.615C998.825,872.653,986.227,878.305,972.335,878.305z M227.665,382.723
			c-4.647,0-8.861,1.89-11.912,4.941s-4.941,7.265-4.941,11.912v214.169v214.169c0,4.647,1.89,8.861,4.941,11.912
			c3.052,3.052,7.265,4.941,11.912,4.941H600h372.335c4.647,0,8.861-1.89,11.912-4.941c3.052-3.052,4.941-7.265,4.941-11.912
			V613.745V399.576c0-4.647-1.89-8.861-4.941-11.912c-3.052-3.052-7.265-4.941-11.912-4.941H600H227.665z"/>
	</g>
	<g>
		<path fill="#FFFFFF" d="M957.504,944.151H599.999H242.494c-13.379,0-25.492-5.423-34.26-14.191s-14.191-20.88-14.191-34.26
			V696.359V497.018c0-13.379,5.423-25.492,14.191-34.26s20.88-14.191,34.26-14.191h357.505h357.505
			c13.379,0,25.492,5.423,34.26,14.191s14.191,20.88,14.191,34.26v199.342v199.342c0,13.379-5.423,25.492-14.191,34.26
			S970.883,944.151,957.504,944.151z"/>
		<path fill="#2E4C59" d="M972.335,960.921H600H227.665c-13.893,0-26.49-5.651-35.615-14.775
			c-9.124-9.124-14.775-21.722-14.775-35.615V696.359V482.186c0-13.893,5.651-26.49,14.775-35.615
			c9.124-9.124,21.722-14.775,35.615-14.775H600h372.335c13.893,0,26.49,5.651,35.615,14.775
			c9.124,9.124,14.775,21.722,14.775,35.615v214.172v214.172c0,13.893-5.651,26.49-14.775,35.615
			C998.825,955.27,986.227,960.921,972.335,960.921z M227.665,465.333c-4.647,0-8.861,1.89-11.912,4.941s-4.941,7.265-4.941,11.912
			v214.172v214.172c0,4.647,1.89,8.861,4.941,11.912s7.265,4.941,11.912,4.941H600h372.335c4.647,0,8.861-1.89,11.912-4.941
			c3.052-3.052,4.941-7.265,4.941-11.912V696.359V482.186c0-4.647-1.89-8.861-4.941-11.912c-3.052-3.052-7.265-4.941-11.912-4.941
			H600H227.665z"/>
	</g>
	<g>
		<path fill="#FFFFFF" d="M957.504,1026.764H599.999H242.494c-13.379,0-25.492-5.423-34.26-14.191s-14.191-20.88-14.191-34.26
			V778.972V579.631c0-13.379,5.423-25.492,14.191-34.26s20.88-14.191,34.26-14.191h357.505h357.505
			c13.379,0,25.492,5.423,34.26,14.191s14.191,20.88,14.191,34.26v199.342v199.342c0,13.379-5.423,25.492-14.191,34.26
			S970.883,1026.764,957.504,1026.764z"/>
		<path fill="#2E4C59" d="M972.335,1043.531H600H227.665c-13.893,0-26.49-5.651-35.615-14.775
			c-9.124-9.124-14.775-21.722-14.775-35.615V778.972V564.803c0-13.893,5.651-26.49,14.775-35.615s21.722-14.775,35.615-14.775H600
			h372.335c13.893,0,26.49,5.651,35.615,14.775c9.124,9.124,14.775,21.722,14.775,35.615v214.169v214.169
			c0,13.893-5.651,26.49-14.775,35.615C998.825,1037.88,986.227,1043.531,972.335,1043.531z M227.665,547.95
			c-4.647,0-8.861,1.89-11.912,4.941c-3.052,3.052-4.941,7.265-4.941,11.912v214.169v214.169c0,4.647,1.89,8.861,4.941,11.912
			s7.265,4.941,11.912,4.941H600h372.335c4.647,0,8.861-1.89,11.912-4.941c3.052-3.052,4.941-7.265,4.941-11.912V778.972V564.803
			c0-4.647-1.89-8.861-4.941-11.912c-3.052-3.052-7.265-4.941-11.912-4.941H600H227.665z"/>
	</g>
	<g opacity="0.2">
		<path fill="#2E4C59" d="M194.044,662.556V827.85v165.294c0,9.284,3.763,17.689,9.847,23.773
			c6.084,6.084,14.489,9.847,23.773,9.847h372.335h372.335c9.284,0,17.689-3.763,23.773-9.847s9.847-14.489,9.847-23.773V827.85
			V662.556H599.999H194.044z"/>
		<path fill="#2E4C59" d="M972.335,1043.531H600H227.665c-13.893,0-26.49-5.651-35.615-14.775
			c-9.124-9.124-14.775-21.722-14.775-35.615V827.849V662.557c0-4.631,1.877-8.823,4.911-11.857
			c3.034-3.034,7.226-4.911,11.857-4.911h405.955h405.955c4.631,0,8.823,1.877,11.857,4.911c3.034,3.034,4.911,7.226,4.911,11.857
			v165.292v165.292c0,13.893-5.651,26.49-14.775,35.615C998.823,1037.88,986.226,1043.531,972.335,1043.531z M210.812,679.325
			v156.908v156.908c0,4.647,1.89,8.861,4.941,11.912s7.265,4.941,11.912,4.941H600h372.335c4.646,0,8.858-1.89,11.909-4.941
			c3.051-3.052,4.941-7.265,4.941-11.912V836.233V679.325H599.998H210.812z"/>
	</g>
	<g>
		<path fill="#FDE9A4" d="M777.743,711.744v18.852v18.852c0,18.288-7.413,34.845-19.398,46.83s-28.542,19.398-46.831,19.398H599.999
			H488.483c-18.289,0-34.846-7.413-46.831-19.398s-19.398-28.542-19.398-46.83v-18.852v-18.852H244.511H66.767v177.321v177.321
			c0,18.288,7.413,34.845,19.398,46.83c11.985,11.985,28.542,19.398,46.831,19.398h467.004h467.003
			c18.289,0,34.846-7.413,46.831-19.398c11.985-11.985,19.397-28.542,19.397-46.83V889.065V711.744H955.487H777.743z"/>
		<path fill="#2E4C59" d="M1067.004,1149.381H600H132.997c-22.883,0-43.632-9.308-58.66-24.336
			C59.308,1110.016,50,1089.267,50,1066.385V889.063V711.742c0-4.631,1.877-8.823,4.911-11.857
			c3.034-3.034,7.226-4.911,11.857-4.911h177.744h177.744c4.631,0,8.823,1.877,11.857,4.911c3.034,3.034,4.911,7.226,4.911,11.857
			v18.854v18.854c0,13.634,5.547,25.997,14.503,34.952c8.956,8.955,21.321,14.501,34.957,14.501H600h111.516
			c13.636,0,26.001-5.546,34.957-14.501s14.503-21.318,14.503-34.952v-18.854v-18.854c0-4.631,1.877-8.823,4.911-11.857
			c3.034-3.034,7.226-4.911,11.857-4.911h177.744h177.744c4.631,0,8.823,1.877,11.857,4.911c3.034,3.034,4.911,7.226,4.911,11.857
			v177.321v177.321c0,22.883-9.308,43.632-24.336,58.66C1110.635,1140.073,1089.886,1149.381,1067.004,1149.381z M83.537,728.51
			v168.937v168.937c0,13.637,5.547,26.002,14.503,34.958c8.956,8.956,21.321,14.502,34.957,14.502H600h467.004
			c13.636,0,26.001-5.546,34.957-14.502c8.956-8.956,14.503-21.321,14.503-34.958V897.447V728.51H955.488H794.512v10.47v10.47
			c0,22.88-9.308,43.627-24.336,58.655c-15.028,15.028-35.778,24.335-58.66,24.335H600H488.484c-22.883,0-43.632-9.308-58.66-24.335
			c-15.028-15.028-24.336-35.775-24.336-58.655v-10.47v-10.47H244.512H83.537z"/>
	</g>
	<g opacity="0.2">
		<path fill="#2E4C59" d="M66.767,1033.695v16.346v16.346c0,18.288,7.413,34.845,19.398,46.83
			c11.985,11.985,28.542,19.398,46.831,19.398h467.004h467.003c18.289,0,34.846-7.413,46.831-19.398
			c11.985-11.985,19.397-28.542,19.397-46.83v-16.346v-16.346H599.999H66.767z"/>
		<path fill="#2E4C59" d="M1067.004,1149.381H600H132.997c-22.883,0-43.632-9.308-58.66-24.336
			C59.308,1110.016,50,1089.267,50,1066.385v-16.346v-16.346c0-4.631,1.877-8.823,4.911-11.857
			c3.034-3.034,7.226-4.911,11.857-4.911H600h533.232c4.631,0,8.823,1.877,11.857,4.911c3.034,3.034,4.911,7.226,4.911,11.857
			v16.346v16.346c0,22.883-9.308,43.632-24.336,58.66C1110.635,1140.073,1089.886,1149.381,1067.004,1149.381z M83.537,1050.461
			v7.962v7.962c0,13.637,5.547,26.002,14.503,34.958c8.956,8.956,21.321,14.502,34.957,14.502H600h467.004
			c13.636,0,26.001-5.546,34.957-14.502c8.956-8.956,14.503-21.321,14.503-34.958v-7.962v-7.962H600H83.537z"/>
	</g>
</g>
</svg>
